<svg width="200" height="200" viewBox="0 0 200 200" fill="none" xmlns="http://www.w3.org/2000/svg">
<path d="M116.266 76.7447C120.967 66.4462 139.771 14.9533 142.592 9.33592C145.412 3.71858 154.814 2.78227 157.635 11.2084C160.455 19.6345 164.216 37.4229 164.216 37.4229C164.216 37.4229 177.379 38.3592 183.96 41.1679C190.542 43.9766 193.362 54.2751 183.96 60.8288C174.558 67.3824 138.831 87.9795 127.548 91.7245C116.266 95.4694 111.565 87.0433 116.266 76.7447Z" fill="#222832"/>
<ellipse cx="96.3259" cy="107.739" rx="7.55436" ry="7.55435" fill="#222832"/>
<path d="M101.012 62.6228C105.493 63.0923 109.752 64.2027 113.709 65.8481L108.665 80.3271C105.629 78.8435 102.285 77.8569 98.7288 77.4843C82.4274 75.7765 67.8281 87.6068 66.1203 103.908C64.4126 120.209 76.2428 134.809 92.5441 136.517C108.845 138.224 123.445 126.394 125.153 110.093C125.486 106.911 125.302 103.793 124.67 100.824L140.615 98.1949C141.592 102.752 141.881 107.538 141.369 112.425C138.761 137.322 116.463 155.39 91.5667 152.782C66.67 150.173 48.6017 127.876 51.2101 102.979C53.8185 78.0828 76.1157 60.0145 101.012 62.6228Z" fill="#222832"/>
<path d="M94.5844 23.4269C104.596 23.1886 114.243 24.7008 123.233 27.6819L119.381 45.5413C111.796 42.7728 103.576 41.3488 95.0159 41.5526C58.3116 42.4266 29.2656 72.889 30.1392 109.593C31.0129 146.298 61.4756 175.345 98.18 174.471C134.885 173.597 163.931 143.134 163.058 106.429C162.875 98.7618 161.4 91.4288 158.848 84.6327L176.286 79.5141C179.251 87.8085 180.962 96.7102 181.183 105.998C182.295 152.713 145.326 191.485 98.6114 192.597C51.8967 193.709 13.1255 156.74 12.0135 110.025C10.9016 63.3102 47.8698 24.5391 94.5844 23.4269Z" fill="#222832"/>
</svg>
