<svg width="200" height="200" viewBox="0 0 200 200" fill="none" xmlns="http://www.w3.org/2000/svg">
<path d="M170 31C181.046 31 190 39.9543 190 51V148.288C190 159.334 181.046 168.288 170 168.288H30C18.9543 168.288 10 159.334 10 148.288V51C10 39.9543 18.9543 31 30 31H170ZM56.7119 105.746C54.5028 105.746 52.7119 107.537 52.7119 109.746V132.254C52.7119 134.463 54.5028 136.254 56.7119 136.254H137.187C139.396 136.254 141.187 134.463 141.187 132.254V109.746C141.187 107.537 139.396 105.746 137.187 105.746H56.7119ZM44.5088 58.458C42.2997 58.458 40.5088 60.2489 40.5088 62.458V84.9658C40.5088 87.175 42.2997 88.9658 44.5088 88.9658H60.915C63.1242 88.9658 64.915 87.175 64.915 84.9658V62.458C64.915 60.2489 63.1242 58.458 60.915 58.458H44.5088ZM90.2715 58.458C88.0623 58.458 86.2715 60.2489 86.2715 62.458V84.9658C86.2715 87.175 88.0623 88.9658 90.2715 88.9658H106.678C108.887 88.9658 110.678 87.175 110.678 84.9658V62.458C110.678 60.2489 108.887 58.458 106.678 58.458H90.2715ZM136.034 58.458C133.825 58.458 132.034 60.2489 132.034 62.458V84.9658C132.034 87.175 133.825 88.9658 136.034 88.9658H152.44C154.65 88.9658 156.44 87.175 156.44 84.9658V62.458C156.44 60.2489 154.65 58.458 152.44 58.458H136.034Z" fill="#222832"/>
</svg>
