<svg width="100" height="100" viewBox="0 0 100 100" fill="none" xmlns="http://www.w3.org/2000/svg">
<g clip-path="url(#clip0_1_27)">
<rect width="100" height="100" fill="#2B7FFF"/>
<path d="M-10 -10H110V110H-10V-10ZM-10 -10V110H110V-10H-10ZM38.375 72.5H28.25V39.875H38.375V72.5ZM33.3125 35.5625C30.125 35.5625 27.5 32.9375 27.5 29.75C27.5 26.5625 30.125 23.9375 33.3125 23.9375C36.5 23.9375 39.125 26.5625 39.125 29.75C39.125 32.9375 36.5 35.5625 33.3125 35.5625ZM76.25 72.5H66.125V56.75C66.125 53 66.125 48.125 60.875 48.125C55.625 48.125 54.875 52.25 54.875 56.5625V72.5H44.75V39.875H54.5V44.375H54.6875C56 41.75 59.375 39.125 64.25 39.125C74.5625 39.125 76.4375 45.875 76.4375 54.6875V72.5H76.25Z" fill="white"/>
</g>
<defs>
<clipPath id="clip0_1_27">
<rect width="100" height="100" fill="white"/>
</clipPath>
</defs>
</svg>
