<svg xmlns="http://www.w3.org/2000/svg" width="298" height="171" viewBox="0 0 298 171" fill="none">
	<path d="M163 86H203.25M243.5 86H203.25M203.25 86V126" stroke="#05DF72" stroke-width="16" stroke-linecap="round"/>
	<path d="M155 46H165.5M202.5 46H243M125 125.5H155" stroke="#05DF72" stroke-width="16" stroke-linecap="round"/>
	<rect x="9.5" y="9.5" width="279" height="152" rx="30.5" stroke="#05DF72" stroke-width="19"/>
	<path d="M237.5 125.5H241" stroke="#05DF72" stroke-width="16" stroke-linecap="round"/>
	<path d="M135 86H138.5" stroke="#05DF72" stroke-width="16" stroke-linecap="round"/>
	<path d="M51.5 114.5V47.5622C51.5 45.1088 53.0469 43.0412 55.4907 42.8239C59.0405 42.5083 65.3629 42.409 76 43.5C95.5 45.5 104.5 58.5 104.5 80.5C104.5 102.5 97.5 120.5 76 120.5H57.4912C54.1775 120.5 51.5 117.814 51.5 114.5Z" stroke="#05DF72" stroke-width="16" stroke-linecap="round"/>
</svg>