<svg width="100" height="100" viewBox="0 0 100 100" fill="none" xmlns="http://www.w3.org/2000/svg">
<rect width="100" height="100" fill="#2B7FFF"/>
<path d="M31.1625 61.0977C30.1083 59.2841 29.3177 57.4227 28.7906 55.5136C28.2635 53.6045 28 51.6477 28 49.6432C28 43.2477 30.2281 37.8068 34.6844 33.3205C39.1406 28.8341 44.5792 26.5909 51 26.5909H51.5031L46.9031 22.0091L50.9281 18L62.4281 29.4545L50.9281 40.9091L46.9031 36.9L51.5031 32.3182H51C46.2083 32.3182 42.1354 34.0006 38.7812 37.3653C35.4271 40.7301 33.75 44.8227 33.75 49.6432C33.75 50.8841 33.8937 52.1011 34.1812 53.2943C34.4687 54.4875 34.9 55.6568 35.475 56.8023L31.1625 61.0977ZM51.0719 81L39.5719 69.5455L51.0719 58.0909L55.0969 62.1L50.4969 66.6818H51C55.7917 66.6818 59.8646 64.9994 63.2187 61.6347C66.5729 58.2699 68.25 54.1773 68.25 49.3568C68.25 48.1159 68.1062 46.8989 67.8187 45.7057C67.5312 44.5125 67.1 43.3432 66.525 42.1977L70.8375 37.9023C71.8917 39.7159 72.6823 41.5773 73.2094 43.4864C73.7365 45.3955 74 47.3523 74 49.3568C74 55.7523 71.7719 61.1932 67.3156 65.6795C62.8594 70.1659 57.4208 72.4091 51 72.4091H50.4969L55.0969 76.9909L51.0719 81Z" fill="white"/>
</svg>
