<svg width="200" height="200" viewBox="0 0 200 200" fill="none" xmlns="http://www.w3.org/2000/svg">
<path d="M58.5793 148.491L29.3302 177.74V193.904L66.2764 157.728L58.5793 148.491Z" fill="#222832"/>
<path d="M38.5667 127.709L16.2451 148.491L27.021 152.34L46.2639 135.406L38.5667 127.709Z" fill="#222832"/>
<path d="M77.052 57.6647C103.343 18.4442 174.806 -2.37217 186.352 9.17352C197.897 20.7198 181.78 80.5551 141.708 108.466V152.34C141.708 152.34 120.156 181.589 112.459 180.819C104.762 180.049 98.6039 151.57 97.8342 148.491C97.0627 145.412 77.052 143.873 77.052 143.873C76.9528 143.753 51.6488 113.077 49.343 108.466C47.0339 103.848 53.1911 96.9208 44.7248 96.9206C36.2581 96.9206 11.6271 89.9933 10.0871 83.8356C8.54769 77.6779 27.6983 64.7662 44.7248 51.5075L77.052 57.6647ZM139.4 45.3493C133.448 45.3493 128.623 50.1743 128.623 56.1257C128.623 62.0771 133.448 66.902 139.4 66.902C145.351 66.9018 150.175 62.0769 150.175 56.1257C150.175 50.1744 145.351 45.3495 139.4 45.3493Z" fill="#222832"/>
</svg>
